
<global>
ampeg_attack=0.001
ampeg_release=1.5
</global>

<group>
color=red
group_label=MainHits_RR1
seq_length=4
seq_position=1

<region>
hivel=103
key=D3
lovel=78
offset=495
sample=Bass_a4_HardMallets_Center_Hits_F_D4_RR1.opus
</region>

<region>
hivel=127
key=D3
lovel=104
offset=496
sample=Bass_a4_HardMallets_Center_Hits_FF_D4_RR1.opus
</region>

<region>
hivel=77
key=D3
lovel=52
offset=482
sample=Bass_a4_HardMallets_Center_Hits_MF_D4_RR1.opus
</region>

<region>
hivel=51
key=D3
lovel=26
offset=481
sample=Bass_a4_HardMallets_Center_Hits_MP_D4_RR1.opus
</region>

<region>
hivel=25
key=D3
lovel=0
offset=5907
sample=Bass_a4_HardMallets_Center_Hits_P_D4_RR1.opus
</region>

<region>
hivel=103
key=E3
lovel=78
offset=489
sample=Bass_a4_HardMallets_Edge_Hits_F_D4_RR1.opus
</region>

<region>
hivel=127
key=E3
lovel=104
offset=766
sample=Bass_a4_HardMallets_Edge_Hits_FF_D4_RR1.opus
</region>

<region>
hivel=77
key=E3
lovel=52
offset=376
sample=Bass_a4_HardMallets_Edge_Hits_MF_D4_RR1.opus
</region>

<region>
hivel=51
key=E3
lovel=26
offset=370
sample=Bass_a4_HardMallets_Edge_Hits_MP_D4_RR1.opus
</region>

<region>
hivel=25
key=E3
lovel=0
offset=5915
sample=Bass_a4_HardMallets_Edge_Hits_P_D4_RR1.opus
</region>

<region>
hivel=103
key=D#3
lovel=78
offset=424
sample=Bass_a4_HardMallets_Halfway_Hits_F_D4_RR1.opus
</region>

<region>
hivel=127
key=D#3
lovel=104
offset=269
sample=Bass_a4_HardMallets_Halfway_Hits_FF_D4_RR1.opus
</region>

<region>
hivel=77
key=D#3
lovel=52
offset=260
sample=Bass_a4_HardMallets_Halfway_Hits_MF_D4_RR1.opus
</region>

<region>
hivel=51
key=D#3
lovel=26
offset=481
sample=Bass_a4_HardMallets_Halfway_Hits_MP_D4_RR1.opus
</region>

<region>
hivel=25
key=D#3
lovel=0
offset=4322
sample=Bass_a4_HardMallets_Halfway_Hits_P_D4_RR1.opus
</region>
</group>

<group>
color=red
group_label=MainHits_RR3
seq_length=4
seq_position=2

<region>
hivel=103
key=D3
lovel=78
offset=482
sample=Bass_a4_HardMallets_Center_Hits_F_D4_RR3.opus
</region>

<region>
hivel=127
key=D3
lovel=104
offset=497
sample=Bass_a4_HardMallets_Center_Hits_FF_D4_RR3.opus
</region>

<region>
hivel=77
key=D3
lovel=52
offset=481
sample=Bass_a4_HardMallets_Center_Hits_MF_D4_RR3.opus
</region>

<region>
hivel=51
key=D3
lovel=26
offset=481
sample=Bass_a4_HardMallets_Center_Hits_MP_D4_RR3.opus
</region>

<region>
hivel=25
key=D3
lovel=0
offset=4870
sample=Bass_a4_HardMallets_Center_Hits_P_D4_RR3.opus
</region>

<region>
hivel=103
key=E3
lovel=78
offset=462
sample=Bass_a4_HardMallets_Edge_Hits_F_D4_RR3.opus
</region>

<region>
hivel=127
key=E3
lovel=104
offset=492
sample=Bass_a4_HardMallets_Edge_Hits_FF_D4_RR3.opus
</region>

<region>
hivel=77
key=E3
lovel=52
offset=1702
sample=Bass_a4_HardMallets_Edge_Hits_MF_D4_RR3.opus
</region>

<region>
hivel=51
key=E3
lovel=26
offset=480
sample=Bass_a4_HardMallets_Edge_Hits_MP_D4_RR3.opus
</region>

<region>
hivel=25
key=E3
lovel=0
offset=5982
sample=Bass_a4_HardMallets_Edge_Hits_P_D4_RR3.opus
</region>

<region>
hivel=103
key=D#3
lovel=78
offset=254
sample=Bass_a4_HardMallets_Halfway_Hits_F_D4_RR3.opus
</region>

<region>
hivel=127
key=D#3
lovel=104
offset=487
sample=Bass_a4_HardMallets_Halfway_Hits_FF_D4_RR3.opus
</region>

<region>
hivel=77
key=D#3
lovel=52
offset=256
sample=Bass_a4_HardMallets_Halfway_Hits_MF_D4_RR3.opus
</region>

<region>
hivel=51
key=D#3
lovel=26
offset=480
sample=Bass_a4_HardMallets_Halfway_Hits_MP_D4_RR3.opus
</region>

<region>
hivel=25
key=D#3
lovel=0
offset=481
sample=Bass_a4_HardMallets_Halfway_Hits_P_D4_RR3.opus
</region>
</group>

<group>
color=red
group_label=MainHits_RR5
seq_length=4
seq_position=3

<region>
hivel=103
key=D3
lovel=78
offset=496
sample=Bass_a4_HardMallets_Center_Hits_F_D4_RR5.opus
</region>

<region>
hivel=127
key=D3
lovel=104
offset=499
sample=Bass_a4_HardMallets_Center_Hits_FF_D4_RR5.opus
</region>

<region>
hivel=77
key=D3
lovel=52
offset=481
sample=Bass_a4_HardMallets_Center_Hits_MF_D4_RR5.opus
</region>

<region>
hivel=51
key=D3
lovel=26
offset=481
sample=Bass_a4_HardMallets_Center_Hits_MP_D4_RR5.opus
</region>

<region>
hivel=25
key=D3
lovel=0
offset=3268
sample=Bass_a4_HardMallets_Center_Hits_P_D4_RR5.opus
</region>

<region>
hivel=103
key=E3
lovel=78
offset=480
sample=Bass_a4_HardMallets_Edge_Hits_F_D4_RR5.opus
</region>

<region>
hivel=127
key=E3
lovel=104
offset=491
sample=Bass_a4_HardMallets_Edge_Hits_FF_D4_RR5.opus
</region>

<region>
hivel=77
key=E3
lovel=52
offset=481
sample=Bass_a4_HardMallets_Edge_Hits_MF_D4_RR5.opus
</region>

<region>
hivel=51
key=E3
lovel=26
offset=377
sample=Bass_a4_HardMallets_Edge_Hits_MP_D4_RR5.opus
</region>

<region>
hivel=25
key=E3
lovel=0
offset=6034
sample=Bass_a4_HardMallets_Edge_Hits_P_D4_RR5.opus
</region>

<region>
hivel=103
key=D#3
lovel=78
offset=489
sample=Bass_a4_HardMallets_Halfway_Hits_F_D4_RR5.opus
</region>

<region>
hivel=127
key=D#3
lovel=104
offset=271
sample=Bass_a4_HardMallets_Halfway_Hits_FF_D4_RR5.opus
</region>

<region>
hivel=77
key=D#3
lovel=52
offset=481
sample=Bass_a4_HardMallets_Halfway_Hits_MF_D4_RR5.opus
</region>

<region>
hivel=51
key=D#3
lovel=26
offset=481
sample=Bass_a4_HardMallets_Halfway_Hits_MP_D4_RR5.opus
</region>

<region>
hivel=25
key=D#3
lovel=0
offset=481
sample=Bass_a4_HardMallets_Halfway_Hits_P_D4_RR5.opus
</region>
</group>

<group>
color=red
group_label=MainHits_RR7
seq_length=4
seq_position=4

<region>
hivel=103
key=D3
lovel=78
offset=499
sample=Bass_a4_HardMallets_Center_Hits_F_D4_RR7.opus
</region>

<region>
hivel=127
key=D3
lovel=104
offset=498
sample=Bass_a4_HardMallets_Center_Hits_FF_D4_RR7.opus
</region>

<region>
hivel=77
key=D3
lovel=52
offset=481
sample=Bass_a4_HardMallets_Center_Hits_MF_D4_RR7.opus
</region>

<region>
hivel=51
key=D3
lovel=26
offset=482
sample=Bass_a4_HardMallets_Center_Hits_MP_D4_RR7.opus
</region>

<region>
hivel=25
key=D3
lovel=0
offset=4714
sample=Bass_a4_HardMallets_Center_Hits_P_D4_RR7.opus
</region>

<region>
hivel=103
key=E3
lovel=78
offset=480
sample=Bass_a4_HardMallets_Edge_Hits_F_D4_RR7.opus
</region>

<region>
hivel=127
key=E3
lovel=104
offset=758
sample=Bass_a4_HardMallets_Edge_Hits_FF_D4_RR7.opus
</region>

<region>
hivel=77
key=E3
lovel=52
offset=1342
sample=Bass_a4_HardMallets_Edge_Hits_MF_D4_RR7.opus
</region>

<region>
hivel=51
key=E3
lovel=26
offset=6918
sample=Bass_a4_HardMallets_Edge_Hits_MP_D4_RR7.opus
</region>

<region>
hivel=25
key=E3
lovel=0
offset=5631
sample=Bass_a4_HardMallets_Edge_Hits_P_D4_RR7.opus
</region>

<region>
hivel=103
key=D#3
lovel=78
offset=254
sample=Bass_a4_HardMallets_Halfway_Hits_F_D4_RR7.opus
</region>

<region>
hivel=127
key=D#3
lovel=104
offset=368
sample=Bass_a4_HardMallets_Halfway_Hits_FF_D4_RR7.opus
</region>

<region>
hivel=77
key=D#3
lovel=52
offset=418
sample=Bass_a4_HardMallets_Halfway_Hits_MF_D4_RR7.opus
</region>

<region>
hivel=51
key=D#3
lovel=26
offset=481
sample=Bass_a4_HardMallets_Halfway_Hits_MP_D4_RR7.opus
</region>

<region>
hivel=25
key=D#3
lovel=0
offset=5960
sample=Bass_a4_HardMallets_Halfway_Hits_P_D4_RR7.opus
</region>
</group>

<group>
color=green
group_label=AltHits_RR1
seq_length=2
seq_position=1

<region>
hivel=103
key=D4
lovel=78
offset=481
sample=Bass_a4_HardMallets_Center_Buzz_Stroke_F_D4_RR1.opus
</region>

<region>
hivel=127
key=D4
lovel=104
offset=481
sample=Bass_a4_HardMallets_Center_Buzz_Stroke_FF_D4_RR1.opus
</region>

<region>
hivel=77
key=D4
lovel=52
offset=481
sample=Bass_a4_HardMallets_Center_Buzz_Stroke_MF_D4_RR1.opus
</region>

<region>
hivel=51
key=D4
lovel=26
offset=482
sample=Bass_a4_HardMallets_Center_Buzz_Stroke_MP_D4_RR1.opus
</region>

<region>
hivel=25
key=D4
lovel=0
offset=6250
sample=Bass_a4_HardMallets_Center_Buzz_Stroke_P_D4_RR1.opus
</region>

<region>
hivel=103
key=G4
lovel=78
offset=482
sample=Bass_a4_HardMallets_Center_Dry_Buzz_Stroke_F_D4_RR1.opus
</region>

<region>
hivel=127
key=G4
lovel=104
offset=482
sample=Bass_a4_HardMallets_Center_Dry_Buzz_Stroke_FF_D4_RR1.opus
</region>

<region>
hivel=77
key=G4
lovel=52
offset=481
sample=Bass_a4_HardMallets_Center_Dry_Buzz_Stroke_MF_D4_RR1.opus
</region>

<region>
hivel=51
key=G4
lovel=26
offset=482
sample=Bass_a4_HardMallets_Center_Dry_Buzz_Stroke_MP_D4_RR1.opus
</region>

<region>
hivel=25
key=G4
lovel=0
offset=485
sample=Bass_a4_HardMallets_Center_Dry_Buzz_Stroke_P_D4_RR1.opus
</region>

<region>
hivel=103
key=D5
lovel=78
offset=519
sample=Bass_a4_HardMallets_Center_Rim Shot_F_D4_RR1.opus
</region>

<region>
hivel=127
key=D5
lovel=104
offset=500
sample=Bass_a4_HardMallets_Center_Rim Shot_FF_D4_RR1.opus
</region>

<region>
hivel=77
key=D5
lovel=52
offset=501
sample=Bass_a4_HardMallets_Center_Rim Shot_MF_D4_RR1.opus
</region>

<region>
hivel=51
key=D5
lovel=26
offset=518
sample=Bass_a4_HardMallets_Center_Rim Shot_MP_D4_RR1.opus
</region>

<region>
hivel=25
key=D5
lovel=0
offset=4421
sample=Bass_a4_HardMallets_Center_Rim Shot_P_D4_RR1.opus
</region>

<region>
hivel=103
key=D#5
lovel=78
offset=3686
sample=Bass_a4_HardMallets_Center_Rim_Hit_F_D4_RR1.opus
</region>

<region>
hivel=127
key=D#5
lovel=104
offset=5773
sample=Bass_a4_HardMallets_Center_Rim_Hit_FF_D4_RR1.opus
</region>

<region>
hivel=77
key=D#5
lovel=52
offset=5021
sample=Bass_a4_HardMallets_Center_Rim_Hit_MF_D4_RR1.opus
</region>

<region>
hivel=51
key=D#5
lovel=26
offset=5885
sample=Bass_a4_HardMallets_Center_Rim_Hit_MP_D4_RR1.opus
</region>

<region>
hivel=25
key=D#5
lovel=0
offset=6188
sample=Bass_a4_HardMallets_Center_Rim_Hit_P_D4_RR1.opus
</region>

<region>
hivel=103
key=D6
lovel=78
offset=6358
sample=Bass_a4_HardMallets_Center_Shell_F_D4_RR1.opus
</region>

<region>
hivel=127
key=D6
lovel=104
offset=4460
sample=Bass_a4_HardMallets_Center_Shell_FF_D4_RR1.opus
</region>

<region>
hivel=77
key=D6
lovel=52
offset=6736
sample=Bass_a4_HardMallets_Center_Shell_MF_D4_RR1.opus
</region>

<region>
hivel=51
key=D6
lovel=26
offset=5812
sample=Bass_a4_HardMallets_Center_Shell_MP_D4_RR1.opus
</region>

<region>
hivel=25
key=D6
lovel=0
offset=5828
sample=Bass_a4_HardMallets_Center_Shell_P_D4_RR1.opus
</region>

<region>
hivel=103
key=E4
lovel=78
offset=481
sample=Bass_a4_HardMallets_Edge_Buzz_Stroke_F_D4_RR1.opus
</region>

<region>
hivel=127
key=E4
lovel=104
offset=250
sample=Bass_a4_HardMallets_Edge_Buzz_Stroke_FF_D4_RR1.opus
</region>

<region>
hivel=77
key=E4
lovel=52
offset=480
sample=Bass_a4_HardMallets_Edge_Buzz_Stroke_MF_D4_RR1.opus
</region>

<region>
hivel=51
key=E4
lovel=26
offset=4343
sample=Bass_a4_HardMallets_Edge_Buzz_Stroke_MP_D4_RR1.opus
</region>

<region>
hivel=25
key=E4
lovel=0
offset=6714
sample=Bass_a4_HardMallets_Edge_Buzz_Stroke_P_D4_RR1.opus
</region>

<region>
hivel=103
key=A4
lovel=78
offset=481
sample=Bass_a4_HardMallets_Edge_Dry_Buzz_Stroke_F_D4_RR1.opus
</region>

<region>
hivel=127
key=A4
lovel=104
offset=481
sample=Bass_a4_HardMallets_Edge_Dry_Buzz_Stroke_FF_D4_RR1.opus
</region>

<region>
hivel=77
key=A4
lovel=52
offset=965
sample=Bass_a4_HardMallets_Edge_Dry_Buzz_Stroke_MF_D4_RR1.opus
</region>

<region>
hivel=51
key=A4
lovel=26
offset=481
sample=Bass_a4_HardMallets_Edge_Dry_Buzz_Stroke_MP_D4_RR1.opus
</region>

<region>
hivel=25
key=A4
lovel=0
offset=5145
sample=Bass_a4_HardMallets_Edge_Dry_Buzz_Stroke_P_D4_RR1.opus
</region>

<region>
hivel=103
key=D#4
lovel=78
offset=481
sample=Bass_a4_HardMallets_Halfway_Buzz_Stroke_F_D4_RR1.opus
</region>

<region>
hivel=127
key=D#4
lovel=104
offset=481
sample=Bass_a4_HardMallets_Halfway_Buzz_Stroke_FF_D4_RR1.opus
</region>

<region>
hivel=77
key=D#4
lovel=52
offset=482
sample=Bass_a4_HardMallets_Halfway_Buzz_Stroke_MF_D4_RR1.opus
</region>

<region>
hivel=51
key=D#4
lovel=26
offset=482
sample=Bass_a4_HardMallets_Halfway_Buzz_Stroke_MP_D4_RR1.opus
</region>

<region>
hivel=25
key=D#4
lovel=0
offset=483
sample=Bass_a4_HardMallets_Halfway_Buzz_Stroke_P_D4_RR1.opus
</region>

<region>
hivel=103
key=G#4
lovel=78
offset=481
sample=Bass_a4_HardMallets_Halfway_Dry_Buzz_Stroke_F_D4_RR1.opus
</region>

<region>
hivel=127
key=G#4
lovel=104
offset=402
sample=Bass_a4_HardMallets_Halfway_Dry_Buzz_Stroke_FF_D4_RR1.opus
</region>

<region>
hivel=77
key=G#4
lovel=52
offset=481
sample=Bass_a4_HardMallets_Halfway_Dry_Buzz_Stroke_MF_D4_RR1.opus
</region>

<region>
hivel=51
key=G#4
lovel=26
offset=482
sample=Bass_a4_HardMallets_Halfway_Dry_Buzz_Stroke_MP_D4_RR1.opus
</region>

<region>
hivel=25
key=G#4
lovel=0
offset=483
sample=Bass_a4_HardMallets_Halfway_Dry_Buzz_Stroke_P_D4_RR1.opus
</region>
</group>

<group>
color=green
group_label=AltHits_RR3
seq_length=2
seq_position=2

<region>
hivel=103
key=D4
lovel=78
offset=481
sample=Bass_a4_HardMallets_Center_Buzz_Stroke_F_D4_RR3.opus
</region>

<region>
hivel=127
key=D4
lovel=104
offset=325
sample=Bass_a4_HardMallets_Center_Buzz_Stroke_FF_D4_RR3.opus
</region>

<region>
hivel=77
key=D4
lovel=52
offset=481
sample=Bass_a4_HardMallets_Center_Buzz_Stroke_MF_D4_RR3.opus
</region>

<region>
hivel=51
key=D4
lovel=26
offset=482
sample=Bass_a4_HardMallets_Center_Buzz_Stroke_MP_D4_RR3.opus
</region>

<region>
hivel=25
key=D4
lovel=0
offset=4842
sample=Bass_a4_HardMallets_Center_Buzz_Stroke_P_D4_RR3.opus
</region>

<region>
hivel=103
key=G4
lovel=78
offset=482
sample=Bass_a4_HardMallets_Center_Dry_Buzz_Stroke_F_D4_RR3.opus
</region>

<region>
hivel=127
key=G4
lovel=104
offset=482
sample=Bass_a4_HardMallets_Center_Dry_Buzz_Stroke_FF_D4_RR3.opus
</region>

<region>
hivel=77
key=G4
lovel=52
offset=481
sample=Bass_a4_HardMallets_Center_Dry_Buzz_Stroke_MF_D4_RR3.opus
</region>

<region>
hivel=51
key=G4
lovel=26
offset=482
sample=Bass_a4_HardMallets_Center_Dry_Buzz_Stroke_MP_D4_RR3.opus
</region>

<region>
hivel=25
key=G4
lovel=0
offset=484
sample=Bass_a4_HardMallets_Center_Dry_Buzz_Stroke_P_D4_RR3.opus
</region>

<region>
hivel=103
key=D5
lovel=78
offset=524
sample=Bass_a4_HardMallets_Center_Rim Shot_F_D4_RR3.opus
</region>

<region>
hivel=127
key=D5
lovel=104
offset=488
sample=Bass_a4_HardMallets_Center_Rim Shot_FF_D4_RR3.opus
</region>

<region>
hivel=77
key=D5
lovel=52
offset=516
sample=Bass_a4_HardMallets_Center_Rim Shot_MF_D4_RR3.opus
</region>

<region>
hivel=51
key=D5
lovel=26
offset=513
sample=Bass_a4_HardMallets_Center_Rim Shot_MP_D4_RR3.opus
</region>

<region>
hivel=25
key=D5
lovel=0
offset=4811
sample=Bass_a4_HardMallets_Center_Rim Shot_P_D4_RR3.opus
</region>

<region>
hivel=103
key=D#5
lovel=78
offset=5850
sample=Bass_a4_HardMallets_Center_Rim_Hit_F_D4_RR3.opus
</region>

<region>
hivel=127
key=D#5
lovel=104
offset=5950
sample=Bass_a4_HardMallets_Center_Rim_Hit_FF_D4_RR3.opus
</region>

<region>
hivel=77
key=D#5
lovel=52
offset=7195
sample=Bass_a4_HardMallets_Center_Rim_Hit_MF_D4_RR3.opus
</region>

<region>
hivel=51
key=D#5
lovel=26
offset=5885
sample=Bass_a4_HardMallets_Center_Rim_Hit_MP_D4_RR3.opus
</region>

<region>
hivel=25
key=D#5
lovel=0
offset=6580
sample=Bass_a4_HardMallets_Center_Rim_Hit_P_D4_RR3.opus
</region>

<region>
hivel=103
key=D6
lovel=78
offset=6937
sample=Bass_a4_HardMallets_Center_Shell_F_D4_RR3.opus
</region>

<region>
hivel=127
key=D6
lovel=104
offset=5444
sample=Bass_a4_HardMallets_Center_Shell_FF_D4_RR3.opus
</region>

<region>
hivel=77
key=D6
lovel=52
offset=8584
sample=Bass_a4_HardMallets_Center_Shell_MF_D4_RR3.opus
</region>

<region>
hivel=51
key=D6
lovel=26
offset=5470
sample=Bass_a4_HardMallets_Center_Shell_MP_D4_RR3.opus
</region>

<region>
hivel=25
key=D6
lovel=0
offset=4796
sample=Bass_a4_HardMallets_Center_Shell_P_D4_RR3.opus
</region>

<region>
hivel=103
key=E4
lovel=78
offset=481
sample=Bass_a4_HardMallets_Edge_Buzz_Stroke_F_D4_RR3.opus
</region>

<region>
hivel=127
key=E4
lovel=104
offset=458
sample=Bass_a4_HardMallets_Edge_Buzz_Stroke_FF_D4_RR3.opus
</region>

<region>
hivel=77
key=E4
lovel=52
offset=6095
sample=Bass_a4_HardMallets_Edge_Buzz_Stroke_MF_D4_RR3.opus
</region>

<region>
hivel=51
key=E4
lovel=26
offset=481
sample=Bass_a4_HardMallets_Edge_Buzz_Stroke_MP_D4_RR3.opus
</region>

<region>
hivel=25
key=E4
lovel=0
offset=6114
sample=Bass_a4_HardMallets_Edge_Buzz_Stroke_P_D4_RR3.opus
</region>

<region>
hivel=103
key=A4
lovel=78
offset=481
sample=Bass_a4_HardMallets_Edge_Dry_Buzz_Stroke_F_D4_RR3.opus
</region>

<region>
hivel=127
key=A4
lovel=104
offset=480
sample=Bass_a4_HardMallets_Edge_Dry_Buzz_Stroke_FF_D4_RR3.opus
</region>

<region>
hivel=77
key=A4
lovel=52
offset=481
sample=Bass_a4_HardMallets_Edge_Dry_Buzz_Stroke_MF_D4_RR3.opus
</region>

<region>
hivel=51
key=A4
lovel=26
offset=6297
sample=Bass_a4_HardMallets_Edge_Dry_Buzz_Stroke_MP_D4_RR3.opus
</region>

<region>
hivel=25
key=A4
lovel=0
offset=5615
sample=Bass_a4_HardMallets_Edge_Dry_Buzz_Stroke_P_D4_RR3.opus
</region>

<region>
hivel=103
key=D#4
lovel=78
offset=480
sample=Bass_a4_HardMallets_Halfway_Buzz_Stroke_F_D4_RR3.opus
</region>

<region>
hivel=127
key=D#4
lovel=104
offset=254
sample=Bass_a4_HardMallets_Halfway_Buzz_Stroke_FF_D4_RR3.opus
</region>

<region>
hivel=77
key=D#4
lovel=52
offset=480
sample=Bass_a4_HardMallets_Halfway_Buzz_Stroke_MF_D4_RR3.opus
</region>

<region>
hivel=51
key=D#4
lovel=26
offset=1664
sample=Bass_a4_HardMallets_Halfway_Buzz_Stroke_MP_D4_RR3.opus
</region>

<region>
hivel=25
key=D#4
lovel=0
offset=483
sample=Bass_a4_HardMallets_Halfway_Buzz_Stroke_P_D4_RR3.opus
</region>

<region>
hivel=103
key=G#4
lovel=78
offset=482
sample=Bass_a4_HardMallets_Halfway_Dry_Buzz_Stroke_F_D4_RR3.opus
</region>

<region>
hivel=127
key=G#4
lovel=104
offset=482
sample=Bass_a4_HardMallets_Halfway_Dry_Buzz_Stroke_FF_D4_RR3.opus
</region>

<region>
hivel=77
key=G#4
lovel=52
offset=481
sample=Bass_a4_HardMallets_Halfway_Dry_Buzz_Stroke_MF_D4_RR3.opus
</region>

<region>
hivel=51
key=G#4
lovel=26
offset=481
sample=Bass_a4_HardMallets_Halfway_Dry_Buzz_Stroke_MP_D4_RR3.opus
</region>

<region>
hivel=25
key=G#4
lovel=0
offset=484
sample=Bass_a4_HardMallets_Halfway_Dry_Buzz_Stroke_P_D4_RR3.opus
</region>
</group>

<group>
amp_veltrack=0
ampeg_attack=0.001
ampeg_release=0.05
group_label=Rolls_RR1_0-25
seq_length=2
seq_position=1
xfin_hicc1=25
xfout_hicc1=50
xfout_locc1=25

<region>
hivel=127
key=D2
loop_end=116397
loop_mode=loop_continuous
loop_start=28764
loop_xfade=21631
lovel=1
offset=485
sample=Bass_a4_HardMallets_Center_Buzz_Roll_P_D4_RR1.opus
</region>

<region>
hivel=127
key=F2
loop_end=116397
loop_mode=loop_continuous
loop_start=26329
loop_xfade=21631
lovel=1
offset=6306
sample=Bass_a4_HardMallets_Center_Rim_Buzz_Roll_P_D4_RR1.opus
</region>

<region>
hivel=127
key=D#2
loop_end=116397
loop_mode=loop_continuous
loop_start=28926
loop_xfade=21631
lovel=1
offset=2112
sample=Bass_a4_HardMallets_Edge_Buzz_Roll_P_D4_RR1.opus
</region>

<region>
hivel=127
key=E2
loop_end=116397
loop_mode=loop_continuous
loop_start=29684
loop_xfade=21631
lovel=1
offset=483
sample=Bass_a4_HardMallets_Halfway_Buzz_Roll_P_D4_RR1.opus
</region>
</group>

<group>
amp_veltrack=0
ampeg_attack=0.001
ampeg_release=0.05
group_label=Rolls_RR1_26-51
seq_length=2
seq_position=1
xfin_hicc1=51
xfin_locc1=26
xfout_hicc1=76
xfout_locc1=51

<region>
hivel=127
key=D2
loop_end=113102
loop_mode=loop_continuous
loop_start=21019
loop_xfade=21019
lovel=1
offset=483
sample=Bass_a4_HardMallets_Center_Buzz_Roll_MP_D4_RR1.opus
</region>

<region>
hivel=127
key=F2
loop_end=116397
loop_mode=loop_continuous
loop_start=27307
loop_xfade=21631
lovel=1
offset=6262
sample=Bass_a4_HardMallets_Center_Rim_Buzz_Roll_MP_D4_RR1.opus
</region>

<region>
hivel=127
key=D#2
loop_end=116397
loop_mode=loop_continuous
loop_start=29619
loop_xfade=21631
lovel=1
offset=481
sample=Bass_a4_HardMallets_Edge_Buzz_Roll_MP_D4_RR1.opus
</region>

<region>
hivel=127
key=E2
loop_end=112873
loop_mode=loop_continuous
loop_start=20976
loop_xfade=20976
lovel=1
offset=481
sample=Bass_a4_HardMallets_Halfway_Buzz_Roll_MP_D4_RR1.opus
</region>
</group>

<group>
amp_veltrack=0
ampeg_attack=0.001
ampeg_release=0.05
group_label=Rolls_RR1_52-77
seq_length=2
seq_position=1
xfin_hicc1=77
xfin_locc1=52
xfout_hicc1=102
xfout_locc1=77

<region>
hivel=127
key=D2
loop_end=113656
loop_mode=loop_continuous
loop_start=21122
loop_xfade=21122
lovel=1
offset=481
sample=Bass_a4_HardMallets_Center_Buzz_Roll_MF_D4_RR1.opus
</region>

<region>
hivel=127
key=F2
loop_end=116397
loop_mode=loop_continuous
loop_start=27804
loop_xfade=21631
lovel=1
offset=3401
sample=Bass_a4_HardMallets_Center_Rim_Buzz_Roll_MF_D4_RR1.opus
</region>

<region>
hivel=127
key=D#2
loop_end=114125
loop_mode=loop_continuous
loop_start=21209
loop_xfade=21209
lovel=1
offset=481
sample=Bass_a4_HardMallets_Edge_Buzz_Roll_MF_D4_RR1.opus
</region>

<region>
hivel=127
key=E2
loop_end=113283
loop_mode=loop_continuous
loop_start=21052
loop_xfade=21052
lovel=1
offset=482
sample=Bass_a4_HardMallets_Halfway_Buzz_Roll_MF_D4_RR1.opus
</region>
</group>

<group>
amp_veltrack=0
ampeg_attack=0.001
ampeg_release=0.05
group_label=Rolls_RR1_78-103
seq_length=2
seq_position=1
xfin_hicc1=103
xfin_locc1=78
xfout_hicc1=127
xfout_locc1=103

<region>
hivel=127
key=D2
loop_end=113106
loop_mode=loop_continuous
loop_start=21019
loop_xfade=21019
lovel=1
offset=481
sample=Bass_a4_HardMallets_Center_Buzz_Roll_F_D4_RR1.opus
</region>

<region>
hivel=127
key=F2
loop_end=113154
loop_mode=loop_continuous
loop_start=21028
loop_xfade=21028
lovel=1
offset=406
sample=Bass_a4_HardMallets_Center_Rim_Buzz_Roll_F_D4_RR1.opus
</region>

<region>
hivel=127
key=D#2
loop_end=114985
loop_mode=loop_continuous
loop_start=25068
loop_xfade=21369
lovel=1
offset=480
sample=Bass_a4_HardMallets_Edge_Buzz_Roll_F_D4_RR1.opus
</region>

<region>
hivel=127
key=E2
loop_end=113270
loop_mode=loop_continuous
loop_start=21050
loop_xfade=21050
lovel=1
offset=481
sample=Bass_a4_HardMallets_Halfway_Buzz_Roll_F_D4_RR1.opus
</region>
</group>

<group>
amp_veltrack=0
ampeg_attack=0.001
ampeg_release=0.05
group_label=Rolls_RR1_104-127
seq_length=2
seq_position=1
xfin_hicc1=127
xfin_locc1=104
xfout_hicc1=127
xfout_locc1=127

<region>
hivel=127
key=D2
loop_end=113296
loop_mode=loop_continuous
loop_start=21055
loop_xfade=21055
lovel=1
offset=482
sample=Bass_a4_HardMallets_Center_Buzz_Roll_FF_D4_RR1.opus
</region>

<region>
hivel=127
key=F2
loop_end=113421
loop_mode=loop_continuous
loop_start=21078
loop_xfade=21078
lovel=1
offset=409
sample=Bass_a4_HardMallets_Center_Rim_Buzz_Roll_FF_D4_RR1.opus
</region>

<region>
hivel=127
key=D#2
loop_end=113521
loop_mode=loop_continuous
loop_start=21097
loop_xfade=21097
lovel=1
offset=481
sample=Bass_a4_HardMallets_Edge_Buzz_Roll_FF_D4_RR1.opus
</region>

<region>
hivel=127
key=E2
loop_end=114570
loop_mode=loop_continuous
loop_start=21292
loop_xfade=21292
lovel=1
offset=481
sample=Bass_a4_HardMallets_Halfway_Buzz_Roll_FF_D4_RR1.opus
</region>
</group>

<group>
amp_veltrack=0
ampeg_attack=0.001
ampeg_release=0.05
group_label=Rolls_RR2_0-25
seq_length=2
seq_position=2
xfin_hicc1=25
xfout_hicc1=50
xfout_locc1=25

<region>
hivel=127
key=D2
loop_end=116397
loop_mode=loop_continuous
loop_start=27364
loop_xfade=21631
lovel=1
offset=491
sample=Bass_a4_HardMallets_Center_Buzz_Roll_P_D4_RR2.opus
</region>

<region>
hivel=127
key=F2
loop_end=116397
loop_mode=loop_continuous
loop_start=26023
loop_xfade=21631
lovel=1
offset=5163
sample=Bass_a4_HardMallets_Center_Rim_Buzz_Roll_P_D4_RR2.opus
</region>

<region>
hivel=127
key=D#2
loop_end=116397
loop_mode=loop_continuous
loop_start=28435
loop_xfade=21631
lovel=1
offset=5689
sample=Bass_a4_HardMallets_Edge_Buzz_Roll_P_D4_RR2.opus
</region>

<region>
hivel=127
key=E2
loop_end=116397
loop_mode=loop_continuous
loop_start=28555
loop_xfade=21631
lovel=1
offset=486
sample=Bass_a4_HardMallets_Halfway_Buzz_Roll_P_D4_RR2.opus
</region>
</group>

<group>
amp_veltrack=0
ampeg_attack=0.001
ampeg_release=0.05
group_label=Rolls_RR2_26-51
seq_length=2
seq_position=2
xfin_hicc1=51
xfin_locc1=26
xfout_hicc1=76
xfout_locc1=51

<region>
hivel=127
key=D2
loop_end=112904
loop_mode=loop_continuous
loop_start=20982
loop_xfade=20982
lovel=1
offset=482
sample=Bass_a4_HardMallets_Center_Buzz_Roll_MP_D4_RR2.opus
</region>

<region>
hivel=127
key=F2
loop_end=116397
loop_mode=loop_continuous
loop_start=27664
loop_xfade=21631
lovel=1
offset=5599
sample=Bass_a4_HardMallets_Center_Rim_Buzz_Roll_MP_D4_RR2.opus
</region>

<region>
hivel=127
key=D#2
loop_end=113425
loop_mode=loop_continuous
loop_start=21079
loop_xfade=21079
lovel=1
offset=481
sample=Bass_a4_HardMallets_Edge_Buzz_Roll_MP_D4_RR2.opus
</region>

<region>
hivel=127
key=E2
loop_end=112540
loop_mode=loop_continuous
loop_start=20914
loop_xfade=20914
lovel=1
offset=482
sample=Bass_a4_HardMallets_Halfway_Buzz_Roll_MP_D4_RR2.opus
</region>
</group>

<group>
amp_veltrack=0
ampeg_attack=0.001
ampeg_release=0.05
group_label=Rolls_RR2_52-77
seq_length=2
seq_position=2
xfin_hicc1=77
xfin_locc1=52
xfout_hicc1=102
xfout_locc1=77

<region>
hivel=127
key=D2
loop_end=112191
loop_mode=loop_continuous
loop_start=20849
loop_xfade=20849
lovel=1
offset=482
sample=Bass_a4_HardMallets_Center_Buzz_Roll_MF_D4_RR2.opus
</region>

<region>
hivel=127
key=F2
loop_end=115953
loop_mode=loop_continuous
loop_start=21549
loop_xfade=21549
lovel=1
offset=2825
sample=Bass_a4_HardMallets_Center_Rim_Buzz_Roll_MF_D4_RR2.opus
</region>

<region>
hivel=127
key=D#2
loop_end=113900
loop_mode=loop_continuous
loop_start=21167
loop_xfade=21167
lovel=1
offset=480
sample=Bass_a4_HardMallets_Edge_Buzz_Roll_MF_D4_RR2.opus
</region>

<region>
hivel=127
key=E2
loop_end=113291
loop_mode=loop_continuous
loop_start=21054
loop_xfade=21054
lovel=1
offset=481
sample=Bass_a4_HardMallets_Halfway_Buzz_Roll_MF_D4_RR2.opus
</region>
</group>

<group>
amp_veltrack=0
ampeg_attack=0.001
ampeg_release=0.05
group_label=Rolls_RR2_78-103
seq_length=2
seq_position=2
xfin_hicc1=103
xfin_locc1=78
xfout_hicc1=127
xfout_locc1=103

<region>
hivel=127
key=D2
loop_end=113538
loop_mode=loop_continuous
loop_start=21100
loop_xfade=21100
lovel=1
offset=482
sample=Bass_a4_HardMallets_Center_Buzz_Roll_F_D4_RR2.opus
</region>

<region>
hivel=127
key=F2
loop_end=113030
loop_mode=loop_continuous
loop_start=21005
loop_xfade=21005
lovel=1
offset=369
sample=Bass_a4_HardMallets_Center_Rim_Buzz_Roll_F_D4_RR2.opus
</region>

<region>
hivel=127
key=D#2
loop_end=112850
loop_mode=loop_continuous
loop_start=20972
loop_xfade=20972
lovel=1
offset=480
sample=Bass_a4_HardMallets_Edge_Buzz_Roll_F_D4_RR2.opus
</region>

<region>
hivel=127
key=E2
loop_end=113655
loop_mode=loop_continuous
loop_start=21122
loop_xfade=21122
lovel=1
offset=480
sample=Bass_a4_HardMallets_Halfway_Buzz_Roll_F_D4_RR2.opus
</region>
</group>

<group>
amp_veltrack=0
ampeg_attack=0.001
ampeg_release=0.05
group_label=Rolls_RR2_104-127
seq_length=2
seq_position=2
xfin_hicc1=127
xfin_locc1=104
xfout_hicc1=127
xfout_locc1=127

<region>
hivel=127
key=D2
loop_end=113141
loop_mode=loop_continuous
loop_start=21026
loop_xfade=21026
lovel=1
offset=481
sample=Bass_a4_HardMallets_Center_Buzz_Roll_FF_D4_RR2.opus
</region>

<region>
hivel=127
key=F2
loop_end=113784
loop_mode=loop_continuous
loop_start=21145
loop_xfade=21145
lovel=1
offset=431
sample=Bass_a4_HardMallets_Center_Rim_Buzz_Roll_FF_D4_RR2.opus
</region>

<region>
hivel=127
key=D#2
loop_end=112249
loop_mode=loop_continuous
loop_start=20860
loop_xfade=20860
lovel=1
offset=480
sample=Bass_a4_HardMallets_Edge_Buzz_Roll_FF_D4_RR2.opus
</region>

<region>
hivel=127
key=E2
loop_end=114107
loop_mode=loop_continuous
loop_start=21206
loop_xfade=21206
lovel=1
offset=481
sample=Bass_a4_HardMallets_Halfway_Buzz_Roll_FF_D4_RR2.opus
</region>
</group>

<group>
amp_veltrack=0
ampeg_attack=0.01
ampeg_release=0.65
group_label=Rolls_Release_RR1_0-25
seq_length=2
seq_position=1
trigger=release
xfin_hicc1=25
xfout_hicc1=50
xfout_locc1=25

<region>
hivel=127
key=D2
lovel=1
offset=128264
sample=Bass_a4_HardMallets_Center_Buzz_Roll_P_D4_RR1.opus
</region>

<region>
hivel=127
key=F2
lovel=1
offset=127359
sample=Bass_a4_HardMallets_Center_Rim_Buzz_Roll_P_D4_RR1.opus
</region>

<region>
hivel=127
key=D#2
lovel=1
offset=134277
sample=Bass_a4_HardMallets_Edge_Buzz_Roll_P_D4_RR1.opus
</region>

<region>
hivel=127
key=E2
lovel=1
offset=130073
sample=Bass_a4_HardMallets_Halfway_Buzz_Roll_P_D4_RR1.opus
</region>
</group>

<group>
amp_veltrack=0
ampeg_attack=0.01
ampeg_release=0.65
group_label=Rolls_Release_RR1_26-51
seq_length=2
seq_position=1
trigger=release
xfin_hicc1=51
xfin_locc1=26
xfout_hicc1=76
xfout_locc1=51

<region>
hivel=127
key=D2
lovel=1
offset=125448
sample=Bass_a4_HardMallets_Center_Buzz_Roll_MP_D4_RR1.opus
</region>

<region>
hivel=127
key=F2
lovel=1
offset=128110
sample=Bass_a4_HardMallets_Center_Rim_Buzz_Roll_MP_D4_RR1.opus
</region>

<region>
hivel=127
key=D#2
lovel=1
offset=131288
sample=Bass_a4_HardMallets_Edge_Buzz_Roll_MP_D4_RR1.opus
</region>

<region>
hivel=127
key=E2
lovel=1
offset=124594
sample=Bass_a4_HardMallets_Halfway_Buzz_Roll_MP_D4_RR1.opus
</region>
</group>

<group>
amp_veltrack=0
ampeg_attack=0.01
ampeg_release=0.65
group_label=Rolls_Release_RR1_52-77
seq_length=2
seq_position=1
trigger=release
xfin_hicc1=77
xfin_locc1=52
xfout_hicc1=102
xfout_locc1=77

<region>
hivel=127
key=D2
lovel=1
offset=124026
sample=Bass_a4_HardMallets_Center_Buzz_Roll_MF_D4_RR1.opus
</region>

<region>
hivel=127
key=F2
lovel=1
offset=128690
sample=Bass_a4_HardMallets_Center_Rim_Buzz_Roll_MF_D4_RR1.opus
</region>

<region>
hivel=127
key=D#2
lovel=1
offset=126485
sample=Bass_a4_HardMallets_Edge_Buzz_Roll_MF_D4_RR1.opus
</region>

<region>
hivel=127
key=E2
lovel=1
offset=128754
sample=Bass_a4_HardMallets_Halfway_Buzz_Roll_MF_D4_RR1.opus
</region>
</group>

<group>
amp_veltrack=0
ampeg_attack=0.01
ampeg_release=0.65
group_label=Rolls_Release_RR1_78-103
seq_length=2
seq_position=1
trigger=release
xfin_hicc1=103
xfin_locc1=78
xfout_hicc1=127
xfout_locc1=103

<region>
hivel=127
key=D2
lovel=1
offset=127568
sample=Bass_a4_HardMallets_Center_Buzz_Roll_F_D4_RR1.opus
</region>

<region>
hivel=127
key=F2
lovel=1
offset=124792
sample=Bass_a4_HardMallets_Center_Rim_Buzz_Roll_F_D4_RR1.opus
</region>

<region>
hivel=127
key=D#2
lovel=1
offset=130470
sample=Bass_a4_HardMallets_Edge_Buzz_Roll_F_D4_RR1.opus
</region>

<region>
hivel=127
key=E2
lovel=1
offset=127811
sample=Bass_a4_HardMallets_Halfway_Buzz_Roll_F_D4_RR1.opus
</region>
</group>

<group>
amp_veltrack=0
ampeg_attack=0.01
ampeg_release=0.65
group_label=Rolls_Release_RR1_104-127
seq_length=2
seq_position=1
trigger=release
xfin_hicc1=127
xfin_locc1=104
xfout_hicc1=127
xfout_locc1=127

<region>
hivel=127
key=D2
lovel=1
offset=127306
sample=Bass_a4_HardMallets_Center_Buzz_Roll_FF_D4_RR1.opus
</region>

<region>
hivel=127
key=F2
lovel=1
offset=123825
sample=Bass_a4_HardMallets_Center_Rim_Buzz_Roll_FF_D4_RR1.opus
</region>

<region>
hivel=127
key=D#2
lovel=1
offset=128257
sample=Bass_a4_HardMallets_Edge_Buzz_Roll_FF_D4_RR1.opus
</region>

<region>
hivel=127
key=E2
lovel=1
offset=129794
sample=Bass_a4_HardMallets_Halfway_Buzz_Roll_FF_D4_RR1.opus
</region>
</group>

<group>
amp_veltrack=0
ampeg_attack=0.01
ampeg_release=0.65
group_label=Rolls_Release_RR2_0-25
seq_length=2
seq_position=2
trigger=release
xfin_hicc1=25
xfout_hicc1=50
xfout_locc1=25

<region>
hivel=127
key=D2
lovel=1
offset=129499
sample=Bass_a4_HardMallets_Center_Buzz_Roll_P_D4_RR2.opus
</region>

<region>
hivel=127
key=F2
lovel=1
offset=128265
sample=Bass_a4_HardMallets_Center_Rim_Buzz_Roll_P_D4_RR2.opus
</region>

<region>
hivel=127
key=D#2
lovel=1
offset=133206
sample=Bass_a4_HardMallets_Edge_Buzz_Roll_P_D4_RR2.opus
</region>

<region>
hivel=127
key=E2
lovel=1
offset=131300
sample=Bass_a4_HardMallets_Halfway_Buzz_Roll_P_D4_RR2.opus
</region>
</group>

<group>
amp_veltrack=0
ampeg_attack=0.01
ampeg_release=0.65
group_label=Rolls_Release_RR2_26-51
seq_length=2
seq_position=2
trigger=release
xfin_hicc1=51
xfin_locc1=26
xfout_hicc1=76
xfout_locc1=51

<region>
hivel=127
key=D2
lovel=1
offset=124968
sample=Bass_a4_HardMallets_Center_Buzz_Roll_MP_D4_RR2.opus
</region>

<region>
hivel=127
key=F2
lovel=1
offset=128971
sample=Bass_a4_HardMallets_Center_Rim_Buzz_Roll_MP_D4_RR2.opus
</region>

<region>
hivel=127
key=D#2
lovel=1
offset=128295
sample=Bass_a4_HardMallets_Edge_Buzz_Roll_MP_D4_RR2.opus
</region>

<region>
hivel=127
key=E2
lovel=1
offset=124275
sample=Bass_a4_HardMallets_Halfway_Buzz_Roll_MP_D4_RR2.opus
</region>
</group>

<group>
amp_veltrack=0
ampeg_attack=0.01
ampeg_release=0.65
group_label=Rolls_Release_RR2_52-77
seq_length=2
seq_position=2
trigger=release
xfin_hicc1=77
xfin_locc1=52
xfout_hicc1=102
xfout_locc1=77

<region>
hivel=127
key=D2
lovel=1
offset=123198
sample=Bass_a4_HardMallets_Center_Buzz_Roll_MF_D4_RR2.opus
</region>

<region>
hivel=127
key=F2
lovel=1
offset=128164
sample=Bass_a4_HardMallets_Center_Rim_Buzz_Roll_MF_D4_RR2.opus
</region>

<region>
hivel=127
key=D#2
lovel=1
offset=126474
sample=Bass_a4_HardMallets_Edge_Buzz_Roll_MF_D4_RR2.opus
</region>

<region>
hivel=127
key=E2
lovel=1
offset=128184
sample=Bass_a4_HardMallets_Halfway_Buzz_Roll_MF_D4_RR2.opus
</region>
</group>

<group>
amp_veltrack=0
ampeg_attack=0.01
ampeg_release=0.65
group_label=Rolls_Release_RR2_78-103
seq_length=2
seq_position=2
trigger=release
xfin_hicc1=103
xfin_locc1=78
xfout_hicc1=127
xfout_locc1=103

<region>
hivel=127
key=D2
lovel=1
offset=128637
sample=Bass_a4_HardMallets_Center_Buzz_Roll_F_D4_RR2.opus
</region>

<region>
hivel=127
key=F2
lovel=1
offset=123840
sample=Bass_a4_HardMallets_Center_Rim_Buzz_Roll_F_D4_RR2.opus
</region>

<region>
hivel=127
key=D#2
lovel=1
offset=123574
sample=Bass_a4_HardMallets_Edge_Buzz_Roll_F_D4_RR2.opus
</region>

<region>
hivel=127
key=E2
lovel=1
offset=129881
sample=Bass_a4_HardMallets_Halfway_Buzz_Roll_F_D4_RR2.opus
</region>
</group>

<group>
amp_veltrack=0
ampeg_attack=0.01
ampeg_release=0.65
group_label=Rolls_Release_RR2_104-127
seq_length=2
seq_position=2
trigger=release
xfin_hicc1=127
xfin_locc1=104
xfout_hicc1=127
xfout_locc1=127

<region>
hivel=127
key=D2
lovel=1
offset=128399
sample=Bass_a4_HardMallets_Center_Buzz_Roll_FF_D4_RR2.opus
</region>

<region>
hivel=127
key=F2
lovel=1
offset=124307
sample=Bass_a4_HardMallets_Center_Rim_Buzz_Roll_FF_D4_RR2.opus
</region>

<region>
hivel=127
key=D#2
lovel=1
offset=126725
sample=Bass_a4_HardMallets_Edge_Buzz_Roll_FF_D4_RR2.opus
</region>

<region>
hivel=127
key=E2
lovel=1
offset=128599
sample=Bass_a4_HardMallets_Halfway_Buzz_Roll_FF_D4_RR2.opus
</region>
</group>